<svg width="100" height="125" viewBox="0 0 100 125" fill="none" xmlns="http://www.w3.org/2000/svg">
<path d="M93 33H75V7C75 5.9 74.1 5 73 5H43C41.9 5 41 5.9 41 7V51.5C41 53.8 40.5 56 39.5 58.2C39.5 58.2 39.5 58.2 39.5 58.3C38.1 61.3 35.9 63.7 33 65.4C31.8 66.1 30.5 66.6 29.2 67L23.5 68.5L15.4 70.7C9.3 72.3 5 77.9 5 84.2V93C5 94.1 5.9 95 7 95H64.8C64.9 95 64.9 95 65 95C65.1 95 65.1 95 65.2 95H81C82.1 95 83 94.1 83 93V82.1C83 80.4 82.8 78.6 82.5 76.7C81.9 72.9 80.6 69.3 78.7 66C77.7 64.2 76.8 62.2 76.2 60.2C80.8 58.5 84 54.1 84 49C90.2 48.5 95 43.3 95 37V35C95 33.9 94.1 33 93 33ZM22 91H9V84.2C9 79.7 12 75.7 16.4 74.5L22 73V91ZM32 91H26V72L30.2 70.9C30.8 70.7 31.4 70.5 32 70.3V91ZM45 9H71V27H45V9ZM45 31H71V33.4C67.8 34 64.9 35.2 62.4 37H45V31ZM45 41H58C56.5 42.8 55.3 44.8 54.5 47H45V41ZM45 51.5V51H53.4C53.2 52.3 53 53.6 53 55V57H44.2C44.7 55.2 45 53.4 45 51.5ZM36 91V71.4L59.7 91H36ZM63.5 88.9L37.3 67.3C39.1 65.9 40.6 64.2 41.8 62.3L66.3 82.6C65 84.5 64 86.6 63.5 88.9ZM78.8 79.2C78.9 80.2 79 81.1 79 82.1V91H67.2C67.6 88.2 68.8 85.7 70.7 83.6C72.8 81.2 75.7 79.7 78.8 79.2ZM78.1 75.3C74.7 75.8 71.6 77.3 69 79.6L46.7 61H72.4C73.1 63.5 74.1 65.8 75.3 68C76.6 70.3 77.5 72.7 78.1 75.3ZM83 45H82C80.9 45 80 45.9 80 47V49C80 53.4 76.4 57 72 57H57V55C57 45.1 65.1 37 75 37H91C91 41.4 87.4 45 83 45Z" fill="black"/>
</svg>
